HIERARCHY
ROOT hip
{
  OFFSET 0 0 0
  CHANNELS 6 Xposition Yposition Zposition Zrotation Yrotation Xrotation
  JOINT abdomen
  {
    OFFSET 0 20.6881 -0.73152
    CHANNELS 3 Zrotation Xrotation Yrotation
    JOINT chest
    {
      OFFSET 0 11.7043 -0.48768
      CHANNELS 3 Zrotation Xrotation Yrotation
      JOINT neck
      {
        OFFSET 0 22.1894 -2.19456
        CHANNELS 3 Zrotation Xrotation Yrotation
        JOINT head
        {
          OFFSET -0.24384 7.07133 1.2192
          CHANNELS 3 Zrotation Xrotation Yrotation
          JOINT leftEye
          {
            OFFSET 4.14528 8.04674 8.04672
            CHANNELS 3 Zrotation Xrotation Yrotation
            End Site
            {
              OFFSET 1 0 0
            }
          }
          JOINT rightEye
          {
            OFFSET -3.6576 8.04674 8.04672
            CHANNELS 3 Zrotation Xrotation Yrotation
            End Site
            {
              OFFSET 1 0 0
            }
          }
        }
      }
      JOINT rCollar
      {
        OFFSET -2.68224 19.2634 -4.8768
        CHANNELS 3 Zrotation Xrotation Yrotation
        JOINT rShldr
        {
          OFFSET -8.77824 -1.95073 1.46304
          CHANNELS 3 Zrotation Xrotation Yrotation
          JOINT rForeArm
          {
            OFFSET -28.1742 -1.7115 0.48768
            CHANNELS 3 Zrotation Xrotation Yrotation
            JOINT rHand
            {
              OFFSET -22.5879 0.773209 7.07136
              CHANNELS 3 Zrotation Xrotation Yrotation
              JOINT rThumb1
              {
                OFFSET -1.2192 -0.487915 3.41376
                CHANNELS 3 Zrotation Xrotation Yrotation
                JOINT rThumb2
                {
                  OFFSET -3.37035 -0.52449 3.41376
                  CHANNELS 3 Zrotation Xrotation Yrotation
                  End Site
                  {
                    OFFSET -1.78271 -1.18214 1.43049
                  }
                }
              }
              JOINT rIndex1
              {
                OFFSET -7.75947 0.938293 5.60832
                CHANNELS 3 Zrotation Xrotation Yrotation
                JOINT rIndex2
                {
                  OFFSET -2.54057 -0.884171 1.56538
                  CHANNELS 3 Zrotation Xrotation Yrotation
                  End Site
                  {
                    OFFSET -1.62519 -0.234802 1.16502
                  }
                }
              }
              JOINT rMid1
              {
                OFFSET -8.24714 1.18213 3.41376
                CHANNELS 3 Zrotation Xrotation Yrotation
                JOINT rMid2
                {
                  OFFSET -3.10165 -0.590103 1.0647
                  CHANNELS 3 Zrotation Xrotation Yrotation
                  End Site
                  {
                    OFFSET -2.48547 -0.328903 0.83742
                  }
                }
              }
              JOINT rRing1
              {
                OFFSET -8.82822 0.546677 1.51678
                CHANNELS 3 Zrotation Xrotation Yrotation
                JOINT rRing2
                {
                  OFFSET -2.60934 -0.819778 -0.0198488
                  CHANNELS 3 Zrotation Xrotation Yrotation
                  End Site
                  {
                    OFFSET -2.33842 -0.294052 0.168128
                  }
                }
              }
              JOINT rPinky1
              {
                OFFSET -8.27202 -0.0477905 -0.4584
                CHANNELS 3 Zrotation Xrotation Yrotation
                JOINT rPinky2
                {
                  OFFSET -1.82734 -0.647385 -0.700984
                  CHANNELS 3 Zrotation Xrotation Yrotation
                  End Site
                  {
                    OFFSET -1.69225 -0.51767 -0.607171
                  }
                }
              }
            }
          }
        }
      }
      JOINT lCollar
      {
        OFFSET 2.68224 19.2634 -4.8768
        CHANNELS 3 Zrotation Xrotation Yrotation
        JOINT lShldr
        {
          OFFSET 8.77824 -1.95073 1.46304
          CHANNELS 3 Zrotation Xrotation Yrotation
          JOINT lForeArm
          {
            OFFSET 28.1742 -1.7115 0.48768
            CHANNELS 3 Zrotation Xrotation Yrotation
            JOINT lHand
            {
              OFFSET 22.5879 0.773209 7.07136
              CHANNELS 3 Zrotation Xrotation Yrotation
              JOINT lThumb1
              {
                OFFSET 1.2192 -0.487915 3.41376
                CHANNELS 3 Zrotation Xrotation Yrotation
                JOINT lThumb2
                {
                  OFFSET 3.37035 -0.52449 3.41376
                  CHANNELS 3 Zrotation Xrotation Yrotation
                  End Site
                  {
                    OFFSET 1.78271 -1.18214 1.43049
                  }
                }
              }
              JOINT lIndex1
              {
                OFFSET 7.75947 0.938293 5.60832
                CHANNELS 3 Zrotation Xrotation Yrotation
                JOINT lIndex2
                {
                  OFFSET 2.54057 -0.884171 1.56538
                  CHANNELS 3 Zrotation Xrotation Yrotation
                  End Site
                  {
                    OFFSET 1.62519 -0.234802 1.16502
                  }
                }
              }
              JOINT lMid1
              {
                OFFSET 8.24714 1.18213 3.41376
                CHANNELS 3 Zrotation Xrotation Yrotation
                JOINT lMid2
                {
                  OFFSET 3.10165 -0.590103 1.0647
                  CHANNELS 3 Zrotation Xrotation Yrotation
                  End Site
                  {
                    OFFSET 2.48547 -0.328903 0.83742
                  }
                }
              }
              JOINT lRing1
              {
                OFFSET 8.82822 0.546677 1.51678
                CHANNELS 3 Zrotation Xrotation Yrotation
                JOINT lRing2
                {
                  OFFSET 2.60934 -0.819778 -0.0198488
                  CHANNELS 3 Zrotation Xrotation Yrotation
                  End Site
                  {
                    OFFSET 2.33842 -0.294052 0.168128
                  }
                }
              }
              JOINT lPinky1
              {
                OFFSET 8.27202 -0.0477905 -0.4584
                CHANNELS 3 Zrotation Xrotation Yrotation
                JOINT lPinky2
                {
                  OFFSET 1.82734 -0.647385 -0.700984
                  CHANNELS 3 Zrotation Xrotation Yrotation
                  End Site
                  {
                    OFFSET 1.69225 -0.51767 -0.607171
                  }
                }
              }
            }
          }
        }
      }
    }
  }
  JOINT rButtock
  {
    OFFSET -8.77824 4.35084 1.2192
    CHANNELS 3 Zrotation Xrotation Yrotation
    JOINT rThigh
    {
      OFFSET 0 -1.70687 -2.19456
      CHANNELS 3 Zrotation Xrotation Yrotation
      JOINT rShin
      {
        OFFSET 0 -36.8199 0.73152
        CHANNELS 3 Zrotation Xrotation Yrotation
        JOINT rFoot
        {
          OFFSET 0.73152 -45.1104 -5.12064
          CHANNELS 3 Zrotation Xrotation Yrotation
          End Site
          {
            OFFSET -1.1221 -3.69964 12.103
          }
        }
      }
    }
  }
  JOINT lButtock
  {
    OFFSET 8.77824 4.35084 1.2192
    CHANNELS 3 Zrotation Xrotation Yrotation
    JOINT lThigh
    {
      OFFSET 0 -1.70687 -2.19456
      CHANNELS 3 Zrotation Xrotation Yrotation
      JOINT lShin
      {
        OFFSET 0 -36.8199 0.73152
        CHANNELS 3 Zrotation Xrotation Yrotation
        JOINT lFoot
        {
          OFFSET -0.73152 -45.1104 -5.12064
          CHANNELS 3 Zrotation Xrotation Yrotation
          End Site
          {
            OFFSET 1.1221 -3.69964 12.103
          }
        }
      }
    }
  }
}
MOTION
Frames:	4
Frame Time:	0.03333
5.6156260061543435 55.686500549316406 58.92370014637709 5.884800106287003 18.4230999648571 1.9801999814808369 -9.775220230221748 17.51259997487068 1.3822100311517715 5.28329998254776 -10.877099856734276 0.6652009952813387 -8.695460110902786 11.598099768161774 -7.5692300498485565 8.739039972424507 -23.71649980545044 -12.489299923181534 0.0 0.0 0.0 0.0 0.0 0.0 2.7977620220553945e-13 0.0 0.0 20.782899409532547 30.210398733615875 55.15139937400818 -27.37260013818741 -44.071000814437866 90.75990200042725 -2.1689099818468094 -37.88699895143509 -6.261130124330521 8.071543433629813e-10 -2.864908310584724e-10 1.0436451702844352e-09 1.3886092276038653e-09 -5.371703082346357e-10 1.8110313249053434e-09 8.071543433629813e-10 -2.864908310584724e-10 1.0436451702844352e-09 7.7309102565050125 5.474880114197731 0.41731400415301323 8.071543433629813e-10 -2.864908310584724e-10 1.0436451702844352e-09 2.905540131032467 0.9651830233633518 0.102901995414868 8.071743273774246e-10 -2.864908310584724e-10 1.0436451702844352e-09 10.27859978377819 0.7318009994924068 0.025912300043273717 8.071543433629813e-10 -2.864908310584724e-10 1.0436451702844352e-09 2.221670038998127 -0.733487019315362 -0.2089200052432716 2.7977620220553945e-13 0.0 0.0 -44.594101309776306 78.40900003910065 -42.65790045261383 28.382599353790283 -35.77409952878952 -77.0758992433548 0.278411996550858 -17.32229992747307 2.4333999305963516 1.804356664081297e-10 2.4735413717280608e-09 1.5117507246031892e-09 3.007993853998414e-10 4.174580681137741e-09 2.601439064164879e-09 1.804356664081297e-10 2.4735413717280608e-09 1.5117507246031892e-09 -7.7309102565050125 5.474880114197731 -0.41731400415301323 1.804356664081297e-10 2.4735413717280608e-09 1.5117507246031892e-09 -2.905540131032467 0.9651830233633518 -0.102901995414868 1.804356664081297e-10 2.4735413717280608e-09 1.5117507246031892e-09 -10.27859978377819 0.7318009994924068 -0.025912300043273717 1.804356664081297e-10 2.4735413717280608e-09 1.5117507246031892e-09 -2.221670038998127 -0.733487019315362 0.2089200052432716 0.0 0.0 0.0 -34.79340076446533 -65.43170034885406 -25.877799689769745 -1.1481000389903784 59.658100605010986 1.2365000322461128 0.2162860007956624 11.781300008296967 1.5050900727510452 0.0 0.0 0.0 5.677170306444168 -21.59420058131218 6.669450178742409 1.259799962863326 68.97409915924072 -3.747110031545162 13.179799765348434 -27.342599630355835 28.592798709869385
5.34878000500612 56.45309829711914 61.60510020703077 5.931300222873688 22.66680121421814 1.396699994802475 -9.592070281505585 17.529299408197403 1.4056800305843353 6.302949786186218 -9.86781008541584 0.7504069805145264 -10.447900146245956 12.042500227689743 -8.60208973288536 9.192720204591751 -24.10889893770218 -14.337899833917618 0.0 0.0 0.0 0.0 0.0 0.0 2.7977620220553945e-13 0.0 0.0 30.063700675964355 29.120898842811584 40.99280118942261 -28.55720043182373 -36.37219995260239 79.00040030479431 -1.2547999899834394 -28.7389013171196 -4.4228798523545265 1.4574741413753145e-09 -2.1512391867872793e-09 4.972662281943485e-09 2.437290369528e-09 -3.903437573171686e-09 8.617746516392799e-09 1.4574741413753145e-09 -2.1512391867872793e-09 4.972662281943485e-09 7.7309102565050125 5.474880114197731 0.41731400415301323 1.4574741413753145e-09 -2.1512391867872793e-09 4.972662281943485e-09 2.905540131032467 0.9651830233633518 0.102901995414868 1.4574741413753145e-09 -2.1512391867872793e-09 4.972662281943485e-09 10.27859978377819 0.7318009994924068 0.025912300043273717 1.4574741413753145e-09 -2.1512391867872793e-09 4.972662281943485e-09 2.221670038998127 -0.733487019315362 -0.2089200052432716 2.7977620220553945e-13 0.0 0.0 -87.3222005367279 74.54499900341034 6.317559778690338 28.327099084854126 -38.11640024185181 -80.65060257911682 1.6554000601172447 -35.46020060777664 5.636259913444519 3.603517484407348e-10 5.665867774951039e-09 1.944044925039634e-09 5.824141169341601e-10 9.50279854805558e-09 3.3432456802984234e-09 3.603517484407348e-10 5.665867774951039e-09 1.944044925039634e-09 -7.7309102565050125 5.474880114197731 -0.41731400415301323 3.603517484407348e-10 5.665867774951039e-09 1.944044925039634e-09 -2.905540131032467 0.9651830233633518 -0.102901995414868 3.603517484407348e-10 5.665867774951039e-09 1.944044925039634e-09 -10.27859978377819 0.7318009994924068 -0.025912300043273717 3.603517484407348e-10 5.665867774951039e-09 1.944044925039634e-09 -2.221670038998127 -0.733487019315362 0.2089200052432716 0.0 0.0 0.0 -36.201099157333374 -60.61790227890015 -21.969900280237198 -0.6584290042519569 50.74640214443207 0.9383969753980637 -0.19396801013499498 19.583300203084946 4.946029968559742 0.0 0.0 0.0 6.520470231771469 -18.41630056500435 3.6225100234150887 1.0437900200486183 65.98860204219818 -3.3350499719381332 12.656000554561615 -26.36590003967285 28.794600069522858
5.071759997634217 56.96289825439453 64.2114003226161 5.919900164008141 26.56759947538376 1.0208999644964933 -9.578600227832794 17.093200385570526 1.2988899741321802 7.1834298223257065 -8.891899734735489 0.780426012352109 -11.497600078582764 12.567400485277176 -9.313270077109337 8.864260241389275 -23.24319988489151 -15.820700079202652 0.0 0.0 0.0 0.0 0.0 0.0 2.398081733190338e-13 0.0 0.0 34.2819008231163 24.59830015897751 33.973200023174286 -28.17510098218918 -30.903698801994324 63.752299547195435 0.10052300174720585 -12.22049966454506 -1.735360063612461 1.4083934019026856e-09 -2.1717028175771702e-09 5.105675882077776e-09 2.348121697082206e-09 -3.92901711165905e-09 8.842846455081599e-09 1.4083934019026856e-09 -2.1742607714259066e-09 5.105675882077776e-09 7.7309102565050125 5.474880114197731 0.41731400415301323 1.4083934019026856e-09 -2.1717028175771702e-09 5.105675882077776e-09 2.905540131032467 0.9651830233633518 0.102901995414868 1.4083934019026856e-09 -2.1717028175771702e-09 5.105675882077776e-09 10.27859978377819 0.7318009994924068 0.025912300043273717 1.4083934019026856e-09 -2.1717028175771702e-09 5.105675882077776e-09 2.221670038998127 -0.733487019315362 -0.2089200052432716 2.398081733190338e-13 0.0 0.0 -100.43399691581726 66.63120031356812 25.586699545383453 28.18390130996704 -39.04420047998428 -82.38269805908203 3.4279201179742813 -44.626000821590424 8.058239668607712 4.11430889357689e-10 5.246363343758276e-09 1.7291768017457798e-09 6.66986466058006e-10 8.768665793468244e-09 2.9749003260803875e-09 4.11430889357689e-10 5.246363343758276e-09 1.7291768017457798e-09 -7.7309102565050125 5.474880114197731 -0.41731400415301323 4.11430889357689e-10 5.246363343758276e-09 1.7291768017457798e-09 -2.905540131032467 0.9651830233633518 -0.102901995414868 4.11430889357689e-10 5.246363343758276e-09 1.7291768017457798e-09 -10.27859978377819 0.7318009994924068 -0.025912300043273717 4.11430889357689e-10 5.246363343758276e-09 1.7291768017457798e-09 -2.221670038998127 -0.733487019315362 0.2089200052432716 0.0 0.0 0.0 -37.30859935283661 -56.20350122451782 -18.713800460100174 -0.4015100095421076 44.01389926671982 0.8292409591376781 -0.5601560091599822 25.564000010490417 6.044339910149574 0.0 0.0 0.0 7.789570167660713 -15.697000622749329 1.2794400192797184 0.9078160207718611 63.540802001953125 -3.070960007607937 12.33240008354187 -25.350901186466217 29.270300567150116
4.7668299961369485 57.13710021972656 66.8636003062129 5.702000185847282 29.722899198532104 0.6169999809935689 -9.740549996495247 16.20379999279976 1.0637400392442942 7.927640229463577 -7.949409708380699 0.7557370327413082 -11.850699484348297 13.176000416278839 -9.702040180563927 7.841039746999741 -21.150899827480316 -16.92010000348091 0.0 0.0 0.0 0.0 0.0 0.0 1.5987211554602254e-13 0.0 0.0 34.90870088338852 19.335300475358963 34.04880076646805 -23.52309912443161 -18.817199617624283 42.99420118331909 0.13183300383388996 11.697100102901459 1.6398199461400509 6.59872156916208e-10 -3.5299763112561777e-10 1.4375700629898347e-09 1.121103210266483e-09 -6.190248313941993e-10 2.4837731871230062e-09 6.59872156916208e-10 -3.5299763112561777e-10 1.4375700629898347e-09 7.7309102565050125 5.474880114197731 0.41731400415301323 6.59872156916208e-10 -3.5299763112561777e-10 1.4375700629898347e-09 2.905540131032467 0.9651830233633518 0.102901995414868 6.59872156916208e-10 -3.5299763112561777e-10 1.4375700629898347e-09 10.27859978377819 0.7318009994924068 0.025912300043273717 6.59872156916208e-10 -3.5299763112561777e-10 1.4375700629898347e-09 2.221670038998127 -0.733487019315362 -0.2089200052432716 1.5987211554602254e-13 0.0 0.0 -103.23700189590454 59.10920262336731 34.09170001745224 28.233299553394318 -38.790200650691986 -81.85659885406494 3.427479900419712 -45.00400185585022 8.125060200691223 3.3373304120232206e-10 1.2099121704522986e-09 8.671463547216263e-10 5.545963688291522e-10 1.9747403712244704e-09 1.4989609553595074e-09 3.3373304120232206e-10 1.2099121704522986e-09 8.671463547216263e-10 -7.7309102565050125 5.474880114197731 -0.41731400415301323 3.3373304120232206e-10 1.2099121704522986e-09 8.671463547216263e-10 -2.905540131032467 0.9651830233633518 -0.102901995414868 3.3373304120232206e-10 1.2099121704522986e-09 8.671463547216263e-10 -10.27859978377819 0.7318009994924068 -0.025912300043273717 3.3373304120232206e-10 1.2099121704522986e-09 8.671463547216263e-10 -2.221670038998127 -0.733487019315362 0.2089200052432716 0.0 0.0 0.0 -37.78730124235153 -52.18480110168457 -15.726400315761566 -0.28219600673764944 39.461501240730286 0.8191039692610502 0.07951630221214145 29.82399970293045 4.4362399354577065 0.0 0.0 0.0 9.319439828395844 -13.477400243282318 -0.42744298931211233 0.7976329699158669 61.63129985332489 -2.900190129876137 12.19399943947792 -24.300499856472015 30.013698935508728
